<mxfile host="app.diagrams.net" modified="2021-06-15T18:21:07.545Z" agent="5.0 (X11; Linux x86_64) AppleWebKit/537.36 (KHTML, like Gecko) Chrome/91.0.4472.101 Safari/537.36" etag="lQt6OQ7MVAlRE22ECEOn" version="14.7.7" type="github">
  <diagram name="Tracking my theme inheritance" id="qegTBdjG4L62mmGAeBqi">
    <mxGraphModel dx="2946" dy="1610" grid="1" gridSize="10" guides="1" tooltips="1" connect="1" arrows="1" fold="1" page="1" pageScale="1" pageWidth="850" pageHeight="1100" math="0" shadow="0">
      <root>
        <mxCell id="09sq7gRQMhWIal_bmaek-0" />
        <mxCell id="09sq7gRQMhWIal_bmaek-1" parent="09sq7gRQMhWIal_bmaek-0" />
        <mxCell id="CH0xojQbbbADZ-7QYrCj-3" value="index.html" style="rounded=1;whiteSpace=wrap;html=1;fillColor=#CFCFCF;strokeColor=none;fontColor=#333333;fontStyle=1;spacing=9;arcSize=6;align=left;verticalAlign=top;collapsible=1;dropTarget=1;container=1;autosize=0;recursiveResize=0;" parent="09sq7gRQMhWIal_bmaek-1" vertex="1">
          <mxGeometry x="1400" y="130" width="340" height="410" as="geometry">
            <mxRectangle x="-110" y="430" width="90" height="40" as="alternateBounds" />
          </mxGeometry>
        </mxCell>
        <mxCell id="CH0xojQbbbADZ-7QYrCj-5" value="first land" style="rounded=1;whiteSpace=wrap;html=1;strokeColor=#6c8ebf;fontStyle=1;spacing=9;align=left;verticalAlign=top;arcSize=5;fillColor=#dae8fc;" parent="CH0xojQbbbADZ-7QYrCj-3" vertex="1">
          <mxGeometry x="40" y="49.996510590858435" width="150" height="52.769230769230774" as="geometry" />
        </mxCell>
        <mxCell id="CH0xojQbbbADZ-7QYrCj-14" style="edgeStyle=orthogonalEdgeStyle;rounded=0;orthogonalLoop=1;jettySize=auto;html=1;" parent="09sq7gRQMhWIal_bmaek-1" source="CH0xojQbbbADZ-7QYrCj-10" target="CH0xojQbbbADZ-7QYrCj-3" edge="1">
          <mxGeometry relative="1" as="geometry" />
        </mxCell>
        <mxCell id="CH0xojQbbbADZ-7QYrCj-10" value="baseof.html" style="rounded=0;whiteSpace=wrap;html=1;fillColor=#CFCFCF;strokeColor=none;fontColor=#333333;fontStyle=1;spacing=9;arcSize=2;align=left;verticalAlign=top;dropTarget=1;container=1;autosize=0;recursiveResize=0;collapsible=0;" parent="09sq7gRQMhWIal_bmaek-1" vertex="1">
          <mxGeometry x="60" y="270" width="340" height="140" as="geometry">
            <mxRectangle x="-110" y="430" width="90" height="40" as="alternateBounds" />
          </mxGeometry>
        </mxCell>
        <mxCell id="CtCteEP2aUgZUkR65v2v-1" value="atomic level" style="rounded=0;whiteSpace=wrap;html=1;fillColor=#CFCFCF;strokeColor=none;fontColor=#333333;fontStyle=1;spacing=9;arcSize=2;align=center;verticalAlign=middle;dropTarget=1;container=1;autosize=0;recursiveResize=0;collapsible=0;fontSize=32;" vertex="1" parent="09sq7gRQMhWIal_bmaek-1">
          <mxGeometry x="180" y="760" width="400" height="140" as="geometry">
            <mxRectangle x="-110" y="430" width="90" height="40" as="alternateBounds" />
          </mxGeometry>
        </mxCell>
        <mxCell id="CtCteEP2aUgZUkR65v2v-2" value="molocule" style="rounded=0;whiteSpace=wrap;html=1;fillColor=#CFCFCF;strokeColor=none;fontColor=#333333;fontStyle=1;spacing=9;arcSize=2;align=center;verticalAlign=middle;dropTarget=1;container=1;autosize=0;recursiveResize=0;collapsible=0;fontSize=32;" vertex="1" parent="09sq7gRQMhWIal_bmaek-1">
          <mxGeometry x="600" y="760" width="400" height="140" as="geometry">
            <mxRectangle x="-110" y="430" width="90" height="40" as="alternateBounds" />
          </mxGeometry>
        </mxCell>
        <mxCell id="CtCteEP2aUgZUkR65v2v-3" value="organism" style="rounded=0;whiteSpace=wrap;html=1;fillColor=#CFCFCF;strokeColor=none;fontColor=#333333;fontStyle=1;spacing=9;arcSize=2;align=center;verticalAlign=middle;dropTarget=1;container=1;autosize=0;recursiveResize=0;collapsible=0;fontSize=32;" vertex="1" parent="09sq7gRQMhWIal_bmaek-1">
          <mxGeometry x="1020" y="760" width="400" height="140" as="geometry">
            <mxRectangle x="-110" y="430" width="90" height="40" as="alternateBounds" />
          </mxGeometry>
        </mxCell>
        <mxCell id="CtCteEP2aUgZUkR65v2v-4" value="template" style="rounded=0;whiteSpace=wrap;html=1;fillColor=#CFCFCF;strokeColor=none;fontColor=#333333;fontStyle=1;spacing=9;arcSize=2;align=center;verticalAlign=middle;dropTarget=1;container=1;autosize=0;recursiveResize=0;collapsible=0;fontSize=32;" vertex="1" parent="09sq7gRQMhWIal_bmaek-1">
          <mxGeometry x="1440" y="760" width="400" height="140" as="geometry">
            <mxRectangle x="-110" y="430" width="90" height="40" as="alternateBounds" />
          </mxGeometry>
        </mxCell>
        <mxCell id="CtCteEP2aUgZUkR65v2v-5" value="view" style="rounded=0;whiteSpace=wrap;html=1;fillColor=#CFCFCF;strokeColor=none;fontColor=#333333;fontStyle=1;spacing=9;arcSize=2;align=center;verticalAlign=middle;dropTarget=1;container=1;autosize=0;recursiveResize=0;collapsible=0;fontSize=32;" vertex="1" parent="09sq7gRQMhWIal_bmaek-1">
          <mxGeometry x="1860" y="760" width="400" height="140" as="geometry">
            <mxRectangle x="-110" y="430" width="90" height="40" as="alternateBounds" />
          </mxGeometry>
        </mxCell>
        <mxCell id="CtCteEP2aUgZUkR65v2v-6" value="atomic design" style="rounded=0;whiteSpace=wrap;html=1;fillColor=#CFCFCF;strokeColor=none;fontColor=#333333;fontStyle=1;spacing=9;arcSize=2;align=left;verticalAlign=middle;dropTarget=1;container=1;autosize=0;recursiveResize=0;collapsible=0;fontSize=32;" vertex="1" parent="09sq7gRQMhWIal_bmaek-1">
          <mxGeometry x="180" y="660" width="2080" height="60" as="geometry">
            <mxRectangle x="-110" y="430" width="90" height="40" as="alternateBounds" />
          </mxGeometry>
        </mxCell>
      </root>
    </mxGraphModel>
  </diagram>
</mxfile>
